{
  "accessors": [
    {
      "bufferView": 2,
      "componentType": 5126,
      "count": 11105,
      "max": [
        3.3838582038879395,
        6.777059078216553,
        10.34253215789795
      ],
      "min": [
        -3.359142303466797,
        0.04383757710456848,
        -10.414510726928711
      ],
      "type": "VEC3"
    },
    {
      "bufferView": 2,
      "byteOffset": 133260,
      "componentType": 5126,
      "count": 11105,
      "max": [
        0.9999633431434631,
        0.9999992251396179,
        0.9999925494194031
      ],
      "min": [
        -0.9999633431434631,
        -0.9999775886535645,
        -0.9999920725822449
      ],
      "type": "VEC3"
    },
    {
      "bufferView": 3,
      "componentType": 5126,
      "count": 11105,
      "max": [
        0.9999933838844299,
        0.9999993443489075,
        0.999966025352478,
        1.0
      ],
      "min": [
        -0.9985202550888062,
        -0.999920666217804,
        -1.0,
        1.0
      ],
      "type": "VEC4"
    },
    {
      "bufferView": 1,
      "componentType": 5126,
      "count": 11105,
      "max": [
        0.9852856397628784,
        0.9995003938674927
      ],
      "min": [
        0.000492393970489502,
        0.0004994980990886688
      ],
      "type": "VEC2"
    },
    {
      "bufferView": 0,
      "componentType": 5125,
      "count": 60672,
      "type": "SCALAR"
    },
    {
      "bufferView": 2,
      "byteOffset": 266520,
      "componentType": 5126,
      "count": 1840,
      "max": [
        1.4913250207901,
        4.818879127502441,
        10.432313919067383
      ],
      "min": [
        -1.4898943901062012,
        1.833553671836853,
        9.068857192993164
      ],
      "type": "VEC3"
    },
    {
      "bufferView": 2,
      "byteOffset": 288600,
      "componentType": 5126,
      "count": 1840,
      "max": [
        0.9999633431434631,
        0.9999531507492065,
        0.9999910593032837
      ],
      "min": [
        -0.9999632835388184,
        -0.9999552369117737,
        -0.9999920725822449
      ],
      "type": "VEC3"
    },
    {
      "bufferView": 3,
      "byteOffset": 177680,
      "componentType": 5126,
      "count": 1840,
      "max": [
        1.0,
        0.9864000082015991,
        0.9999920129776001,
        1.0
      ],
      "min": [
        -0.9870789051055908,
        -0.9879740476608276,
        -0.8643821477890015,
        1.0
      ],
      "type": "VEC4"
    },
    {
      "bufferView": 1,
      "byteOffset": 88840,
      "componentType": 5126,
      "count": 1840,
      "max": [
        0.7601060271263123,
        0.9995004534721375
      ],
      "min": [
        0.00037986040115356445,
        0.0004994869232177734
      ],
      "type": "VEC2"
    },
    {
      "bufferView": 0,
      "byteOffset": 242688,
      "componentType": 5125,
      "count": 9984,
      "type": "SCALAR"
    }
  ],
  "asset": {
    "extras": {
      "author": "RoutineStudio (https://sketchfab.com/TheRoutine)",
      "license": "CC-BY-4.0 (http://creativecommons.org/licenses/by/4.0/)",
      "source": "https://sketchfab.com/3d-models/plastic-water-bottle-731efe2635c9472c9c1e4fdb1f8fbd13",
      "title": "Plastic Water Bottle"
    },
    "generator": "Sketchfab-12.67.0",
    "version": "2.0"
  },
  "bufferViews": [
    {
      "buffer": 0,
      "byteLength": 282624,
      "name": "floatBufferViews",
      "target": 34963
    },
    {
      "buffer": 0,
      "byteLength": 103560,
      "byteOffset": 282624,
      "byteStride": 8,
      "name": "floatBufferViews",
      "target": 34962
    },
    {
      "buffer": 0,
      "byteLength": 310680,
      "byteOffset": 386184,
      "byteStride": 12,
      "name": "floatBufferViews",
      "target": 34962
    },
    {
      "buffer": 0,
      "byteLength": 207120,
      "byteOffset": 696864,
      "byteStride": 16,
      "name": "floatBufferViews",
      "target": 34962
    }
  ],
  "buffers": [
    {
      "byteLength": 903984,
      "uri": "scene.bin"
    }
  ],
  "extensionsUsed": [
    "KHR_materials_clearcoat"
  ],
  "images": [
    {
      "uri": "textures/WaterBottle1_baseColor.png"
    },
    {
      "uri": "textures/WaterBottle1_metallicRoughness.png"
    },
    {
      "uri": "textures/WaterBottle1_normal.png"
    },
    {
      "uri": "textures/BottleCap_baseColor.png"
    },
    {
      "uri": "textures/BottleCap_metallicRoughness.png"
    },
    {
      "uri": "textures/BottleCap_normal.png"
    }
  ],
  "materials": [
    {
      "alphaMode": "BLEND",
      "doubleSided": true,
      "extensions": {
        "KHR_materials_clearcoat": {
          "clearcoatFactor": 1.0,
          "clearcoatRoughnessFactor": 0.04
        }
      },
      "name": "WaterBottle1",
      "normalTexture": {
        "index": 2
      },
      "occlusionTexture": {
        "index": 1
      },
      "pbrMetallicRoughness": {
        "baseColorTexture": {
          "index": 0
        },
        "metallicRoughnessTexture": {
          "index": 1
        }
      }
    },
    {
      "doubleSided": true,
      "extensions": {
        "KHR_materials_clearcoat": {
          "clearcoatFactor": 1.0,
          "clearcoatRoughnessFactor": 0.04
        }
      },
      "name": "BottleCap",
      "normalTexture": {
        "index": 5
      },
      "occlusionTexture": {
        "index": 4
      },
      "pbrMetallicRoughness": {
        "baseColorTexture": {
          "index": 3
        },
        "metallicRoughnessTexture": {
          "index": 4
        }
      }
    }
  ],
  "meshes": [
    {
      "name": "Beat_Water_Bottle_WaterBottle1_0",
      "primitives": [
        {
          "attributes": {
            "NORMAL": 1,
            "POSITION": 0,
            "TANGENT": 2,
            "TEXCOORD_0": 3
          },
          "indices": 4,
          "material": 0,
          "mode": 4
        }
      ]
    },
    {
      "name": "Bottle_Cap_BottleCap_0",
      "primitives": [
        {
          "attributes": {
            "NORMAL": 6,
            "POSITION": 5,
            "TANGENT": 7,
            "TEXCOORD_0": 8
          },
          "indices": 9,
          "material": 1,
          "mode": 4
        }
      ]
    }
  ],
  "nodes": [
    {
      "children": [
        1
      ],
      "matrix": [
        1.0,
        0.0,
        0.0,
        0.0,
        0.0,
        2.220446049250313e-16,
        -1.0,
        0.0,
        0.0,
        1.0,
        2.220446049250313e-16,
        0.0,
        0.0,
        0.0,
        0.0,
        1.0
      ],
      "name": "Sketchfab_model"
    },
    {
      "children": [
        2
      ],
      "matrix": [
        1.0,
        0.0,
        0.0,
        0.0,
        0.0,
        0.0,
        1.0,
        0.0,
        0.0,
        -1.0,
        0.0,
        0.0,
        0.0,
        0.0,
        0.0,
        1.0
      ],
      "name": "Plastic Water Bottle .fbx"
    },
    {
      "children": [
        3,
        5
      ],
      "name": "RootNode"
    },
    {
      "children": [
        4
      ],
      "name": "Beat_Water_Bottle"
    },
    {
      "mesh": 0,
      "name": "Beat_Water_Bottle_WaterBottle1_0"
    },
    {
      "children": [
        6
      ],
      "name": "Bottle_Cap"
    },
    {
      "mesh": 1,
      "name": "Bottle_Cap_BottleCap_0"
    }
  ],
  "samplers": [
    {
      "magFilter": 9729,
      "minFilter": 9987,
      "wrapS": 10497,
      "wrapT": 10497
    }
  ],
  "scene": 0,
  "scenes": [
    {
      "name": "Sketchfab_Scene",
      "nodes": [
        0
      ]
    }
  ],
  "textures": [
    {
      "sampler": 0,
      "source": 0
    },
    {
      "sampler": 0,
      "source": 1
    },
    {
      "sampler": 0,
      "source": 2
    },
    {
      "sampler": 0,
      "source": 3
    },
    {
      "sampler": 0,
      "source": 4
    },
    {
      "sampler": 0,
      "source": 5
    }
  ]
}
